<?xml version="1.0" encoding="utf-8"?>
<!-- Generator: Adobe Illustrator 18.1.1, SVG Export Plug-In . SVG Version: 6.00 Build 0)  -->
<svg version="1.1" id="Layer_1" xmlns="http://www.w3.org/2000/svg" xmlns:xlink="http://www.w3.org/1999/xlink" x="0px" y="0px"
	 viewBox="0 0 294.4 213.9" enable-background="new 0 0 294.4 213.9" xml:space="preserve">
<path fill="#FFFFFF" d="M275.1,99c-0.2-3.3-0.7-6.5-1.3-9.7c4.9-5.4,8-12.5,8-20.4c0-16.6-13.4-30-30-30c-3,0-5.9,0.4-8.6,1.3
	c-5.6-4.7-11.9-8.9-18.7-12.5c-2.8-12.6-14-22-27.4-22c-7.6,0-14.4,3-19.5,7.9c-0.5-0.1-1-0.1-1.5-0.1C171,5.3,162.1,0,152,0
	c-11.9,0-22.1,7.4-26.2,17.8c-11.7,3.3-22.4,8.2-32,14.2c-4.3-3-9.6-4.7-15.2-4.7c-14.9,0-27,12.1-27,27c0,5.6,1.7,10.7,4.6,15
	C24.5,72.4,0,91.5,0,114.6c0,25.2,29.2,45.6,65.2,45.6c2.8,0,5.6-0.1,8.4-0.4c20.5,21.9,52.9,36.1,89.4,36.1
	c12.5,0,24.5-1.7,35.7-4.7c10,13.9,24.8,22.7,41.3,22.7c30.1,0,54.5-29.2,54.5-65.2C294.4,128.8,286.9,110.9,275.1,99z"/>
</svg>
