<?xml version="1.0" encoding="utf-8"?>
<!-- Generator: Adobe Illustrator 18.1.1, SVG Export Plug-In . SVG Version: 6.00 Build 0)  -->
<svg version="1.1" id="Layer_1" xmlns="http://www.w3.org/2000/svg" xmlns:xlink="http://www.w3.org/1999/xlink" x="0px" y="0px"
	 viewBox="0 0 194.3 191" enable-background="new 0 0 194.3 191" xml:space="preserve">
<g>
	<path fill="#5E5E5E" d="M194.3,95.5c-0.1,21.5-6.7,40.8-19.8,57.8c-13.8,17.8-31.9,29.3-53.7,34.9c-9.4,2.4-18.9,3.3-28.6,2.7
		c-19.9-1.1-37.9-7.4-53.8-19.4c-16.2-12.1-27.5-27.9-33.9-47.1c-2.3-6.9-3.6-13.9-4.2-21.2C-1.4,80.6,4.1,60,17.1,41.5
		C32.1,20.2,52.8,7.1,78.3,1.9c7.8-1.6,15.7-2.2,23.6-1.7C123,1.4,142,8.3,158.5,21.6c15.4,12.4,26.1,28,31.8,47
		C193,77.6,194.2,86.1,194.3,95.5z"/>
	<path fill="#D1D1D1" d="M99.7,5.5c-1.2,0.8-2.2,1.3-3.1,1.9c-2.9,2.1-3.9,5.5-2.4,8.8c1.2,2.7,3,4.8,5.6,6.9c-1.4-3.9-1-7.2,1.7-10
		c2.6-2.8,6-4,9.6-4.4c10-1.1,19,1.6,27.2,7.3c3,2.2,5.7,4.8,7.4,8.1c1,1.9,1.5,3.9,1.5,6.1c1.6-1,2.6-3.4,2.2-5.6
		c-0.5-2.5-1.7-4.7-3.4-6.5c-1.7-1.8-3.6-3.4-5.6-4.9c-2-1.4-4.3-2.5-6.3-4c1.6,0.6,3.3,1.2,4.9,1.9c22.3,9.9,36.9,26.7,43.3,50.3
		c3.3,12.3,3.2,24.8,0,37.2c-0.3,1.2-0.2,2.2,0.4,3.3c1.8,3.2,2.9,6.6,2.7,10.3c-0.4,5.7-3.9,9-8.9,11c-0.7,0.3-1.4,0.5-2,0.7
		c-0.9,0.3-2.1,0.3-2.6,0.9c-0.3,0.4,0.3,1.6,0.5,2.5c1.6,7.2-1.5,13-8.5,15.4c-2.2,0.8-3.6,1.3-3.8,4.3c-0.3,6.5-5.4,9.9-11.6,11.4
		c-2.9,0.7-5.9,1.1-8.9,1c-0.5,0-1.1-0.2-1.3,0.6c-1.4,6.3-6.1,9-11.8,10.4c-7.4,1.8-14.7,0.9-22-0.5c-2.6-0.5-5.1,0.5-7.7,0.6
		c-5.8,0.3-11.5,0.1-16.5-3.5c-0.6-0.4-1.1-0.2-1.7-0.1c-4.9,1.3-9.8,2.2-14.9,2c-4.5-0.2-8.8-0.9-12.4-3.9
		c-3.2-2.7-4.3-6.2-4.1-10.2c0.1-2.9,0.9-5.7,2.2-8.3c0.5-1.1,0.1-1.3-0.9-1.4c-4.1-0.6-7.8-2.1-10.4-5.5c-1-1.3-1.7-2.7-1.9-4.3
		c-0.2-1.3-0.8-1.5-2-1.4c-4.4,0.5-8.8,0.1-13-1.6c-6.1-2.5-8.9-8.6-7.2-15.6c1.1-4.4,3.1-8.3,5.6-11.9c0.4-0.6,0.8-1.1,0-1.8
		c-3.6-3.3-4.3-7.6-3.5-12.1c1.2-6.5,4.8-11.9,8.8-17c1.7-2.2,3.6-4.2,5.6-6.1c0.5-0.5,0.8-0.8,0.2-1.5c-3.7-4.3-3.5-9.1-2-14.1
		c1.8-5.9,5.2-11,9.2-15.6C49.4,23.4,63.6,14.3,80.2,8.6C86.3,6.5,92.7,5.4,99.7,5.5z"/>
	<path fill="#5E5E5E" d="M48.1,96.3c-0.5,6,1.5,10.9,6,14.8c4.3,3.7,9.2,5,14.7,3.1c5-1.7,7.8-5.5,8.8-10.5
		c0.9-4.7-0.2-9.1-3.1-13.2c0.6,0,0.9,0.4,1.1,0.7c5.8,6.2,8.4,13.4,6.1,21.7c-2.5,8.9-11.3,12.7-19.8,9.3
		c-9.2-3.8-13.9-11.1-14.5-20.9C47.2,99.6,47.3,97.8,48.1,96.3z"/>
	<path fill="#5E5E5E" d="M100.4,103.6c-2.3-2.5-3.6-5.4-4.3-8.6c-2-9.3,3.4-18.6,12-21c6.3-1.7,13.5,1.1,17.1,6.6
		c3,4.5,4.3,9.4,2.9,14.8c-0.5-2.1-0.9-4.1-1.7-6.1c-1.5-3.9-3.7-7.2-7.2-9.4c-5.1-3.3-11.7-2-15.3,2.9c-4.2,5.7-5.1,12-3.8,18.9
		c0.1,0.6,0.3,1.2,0.4,1.8C100.6,103.4,100.5,103.4,100.4,103.6z"/>
	<path fill="#5E5E5E" d="M50.7,44.9c1.7,2.6,3.5,4.9,5.9,6.9c2.9,2.3,6.1,4,9.9,4.2c5.7,0.2,10.3-3.3,11.6-8.9
		c1.7-7.2-0.3-13.6-4.5-19.5c-0.3-0.4-0.6-0.7-1.1-1.3c2.9,1.1,5,2.9,6.8,4.9c5,5.4,6,14.7,2.4,21c-3.8,6.6-11.9,9.5-19.1,6.8
		C56,56.5,52,51.7,50.7,44.9z"/>
	<path fill="#5E5E5E" d="M88.5,133c-1.1,2.6-1.3,5.1-1.1,7.6c0.4,5.4,5.1,8.9,10.2,7.4c3.2-0.9,5.4-3.1,7.1-5.9
		c0.8-1.4,1.4-2.8,1.9-4.5c1.6,4.1-0.9,10.1-5.2,12.4c-4.9,2.7-10.8,1.5-13.9-2.8C84.4,143,84.7,136.5,88.5,133z"/>
	<path fill="#5E5E5E" d="M154.9,80.3c2.7-4,8.2-3.7,11.1,0.4c4,5.8,2.6,15.4-3,19.7c-1.8,1.4-4.1,1.8-6.6,0.8
		c3.6-0.7,6.2-2.4,7.9-5.4c1.7-3,2.2-6.1,1.2-9.4C164.1,81.9,160.9,80,154.9,80.3z"/>
</g>
</svg>
