<?xml version="1.0" encoding="utf-8"?>
<!-- Generator: Adobe Illustrator 18.1.1, SVG Export Plug-In . SVG Version: 6.00 Build 0)  -->
<svg version="1.1" id="Layer_1" xmlns="http://www.w3.org/2000/svg" xmlns:xlink="http://www.w3.org/1999/xlink" x="0px" y="0px"
	 viewBox="0 0 154.5 156.6" enable-background="new 0 0 154.5 156.6" xml:space="preserve">
<path fill="#F9DA5E" d="M112,8.7c0-0.4-0.1-0.7,0.2-0.9c0.1,0.2,0.2,0.5,0.2,0.7c0,0.3-0.1,0.6-0.1,0.9C111.8,9.2,112.2,8.8,112,8.7
	z"/>
<path fill="#FCCD38" d="M82.6,1.5c-0.2-0.5-0.3-0.7-0.4-0.8c-0.1-0.2-0.2-0.5,0-0.7c0.1,0.2,0.3,0.4,0.3,0.6
	C82.5,0.8,82.5,1,82.6,1.5z"/>
<path fill="#FCCD38" d="M148.7,114.7c-0.2-0.1-0.3-0.1-0.5-0.2c0.2,0,0.3-0.1,0.5-0.1c0.2,0,0.3,0.1,0.5,0.2
	C149,114.6,148.9,114.6,148.7,114.7z"/>
<path fill="#FCCD38" d="M130.3,86.1c2.7,1.1,5.5,1.7,8.5,1.9c5,0.3,9.7-0.6,14.4-2.3c0.5-0.2,0.9-0.4,1.4-0.6
	c-0.5-0.3-1-0.1-1.5-0.2c-0.3-0.1-0.6-0.1-0.9-0.1c-7-1.3-12-5.7-16.4-10.9c-2.3-2.8-3.7-6.5-7.6-7.9c-0.2-0.1-0.5-0.2-0.4-0.5
	c0.1-0.3,0.4-0.1,0.6-0.1c1.5,0,3.1-0.2,4.6-0.4c6.9-1.2,12.5-4.8,17.6-9.5c0.1-0.1,0.3-0.3,0.2-0.3c-0.2-0.3-0.4,0-0.6,0.1
	c-1.9,0.7-3.9,1.1-6,1.1c-5.7,0-10.8-1.9-15.7-4.7c-3.1-1.7-5.8-4.2-9.7-4.1c-0.2,0-0.5,0-0.4-0.2c0.1-0.2,0.4-0.3,0.6-0.4
	c8.1-3.5,13.1-9.8,16.6-17.6c0.1-0.2,0.3-0.4,0.1-0.6c0,0-0.3,0.2-0.4,0.3c-1,0.9-2,1.8-3.2,2.5c-5.3,2.9-11,3.3-16.8,2.8
	c-3.9-0.3-7.8-2.1-11.7-0.3c-0.1,0.1-0.4,0.1-0.5,0c-0.2-0.3,0.1-0.4,0.3-0.5c1.4-1.5,2.7-3.1,3.8-4.8c3.4-5.4,4.6-11.4,4.9-17.6
	c0-0.2,0-0.5-0.1-0.5c-0.3-0.1-0.3,0.2-0.4,0.4c-0.6,1-1.1,2.1-1.8,3c-3.8,4.9-9.1,7.5-14.8,9.4c-3.7,1.2-7.9,1-10.8,4.2
	c-0.1,0.1-0.5,0.3-0.6,0.2c-0.2-0.2,0-0.4,0.1-0.6C87,18.8,86,10.7,83,2.6c-0.1-0.2-0.2-0.3-0.3-0.4c0,0.2-0.1,0.4-0.1,0.6
	c0,3.7-1.3,6.9-3.2,10c-3.1,5-7.5,8.6-12.3,11.7c-1.2,0.7-1.8,1.7-2.5,2.8c-0.4,0.7-0.7,1.4-1.4,1.9c-0.1-0.8-0.3-1.6-0.3-2.4
	c-0.5-8-4.4-14.4-9.6-20.1c-0.1-0.1-0.3-0.5-0.5-0.3c-0.1,0.1,0,0.4,0.1,0.6c0.5,1.3,0.8,2.6,0.9,4c0.6,6.7-1.8,12.6-5,18.3
	c-1.2,2.2-3.3,4-3.4,6.8c0,0.6-0.1,1.2-0.2,1.7c0,0.3-0.1,0.5-0.2,0.7c-0.1-0.2-0.3-0.4-0.4-0.7c-3.3-7.3-8.7-12.4-15.9-15.7
	c-0.7-0.3-1.3-0.9-2.1-0.9c0.2,0.7,0.9,1.1,1.3,1.7c4.3,5.9,4.6,12.6,4,19.5c-0.3,3.5-1.9,6.9-0.4,10.4c0.1,0.3,0.4,0.8,0.1,1
	c-0.4,0.2-0.6-0.4-0.9-0.6c-6.3-5.9-14-8-22.3-8.3c-0.2,0-0.4,0.1-0.4,0.1c0,0.2,0.2,0.3,0.4,0.3c1.2,0.4,2.3,1.1,3.3,1.9
	c5,3.8,7.5,9.2,9.4,15c1.2,3.6,1.1,7.8,4.2,10.7c0.1,0.1,0.3,0.3,0.1,0.4c-0.2,0.1-0.4,0-0.6-0.1c-3.4-1.3-6.9-2.1-10.9-1.9
	C9.4,71,5,72.4,0.6,73.9C0.4,74,0.2,74.1,0,74.2c0.2,0,0.4,0.1,0.6,0.1c3.1,0.1,5.9,1,8.5,2.5c4.5,2.5,8,6,11,10.2
	c1.8,2.5,3.4,5.2,6.5,6.4c0.2,0.1,0.5,0.2,0.4,0.4c-0.1,0.3-0.4,0.2-0.6,0.2c-1.7-0.1-3.3,0.2-5,0.5c-6.8,1.2-12.2,4.8-17.2,9.4
	c-0.1,0.1-0.3,0.4-0.3,0.4c0.2,0.2,0.4,0,0.6-0.1c1.8-0.7,3.7-1.1,5.7-1.1c5.5-0.1,10.5,1.8,15.3,4.3c3.1,1.6,5.7,4.5,9.6,4.4
	c0.3,0,0.9-0.1,1,0.3c0.1,0.5-0.5,0.4-0.8,0.5c-6.9,3.3-11.9,8.5-15.2,15.4c-0.4,0.7-1.1,1.3-1,2.3c0.8-0.3,1.3-1,1.9-1.4
	c0.1-0.1,0.2-0.1,0.2-0.1c5.6-3.7,11.9-4.1,18.3-3.6c3.9,0.3,7.7,2,11.6,0.3c0.2-0.1,0.4,0,0.5,0c-0.1,0.2-0.2,0.4-0.4,0.6
	c-1.3,1.3-2.4,2.8-3.5,4.4c-3.8,5.5-4.9,11.7-5.2,18.2c0,0.2,0.1,0.3,0.1,0.5c0.1-0.1,0.2-0.3,0.3-0.4c1-2.2,2.4-4,4.2-5.6
	c4.4-4.1,9.7-6.1,15.3-7.5c2.7-0.7,5.4-1,7.5-3.1c0.2-0.2,0.6-0.5,0.8-0.3c0.3,0.2,0,0.6-0.1,0.9c-3,7.9-2.2,15.7,0.8,23.5
	c0.1,0.2,0,0.5,0.3,0.5c0.1,0,0.2-0.3,0.2-0.5c0-2.9,0.9-5.5,2.3-8c2.4-4.4,5.8-7.9,9.8-10.8c2.6-2,5.7-3.5,6.9-6.8
	c0.1-0.2,0.3-0.3,0.5-0.4c0,0.2,0.1,0.4,0.1,0.6c0,2,0.3,3.9,0.7,5.8c1.3,6.4,4.7,11.5,9,16.2c0.1,0.2,0.3,0.3,0.5,0.4
	c0.2-0.3,0-0.5-0.1-0.7c-1.2-3.1-1.2-6.4-0.7-9.7c0.7-4.9,2.8-9.2,5.3-13.4c1.2-2,3-3.7,2.9-6.3c0-0.5,0.1-1.1,0.2-1.6
	c0-0.2,0.2-0.4,0.3-0.6c0.1,0.2,0.2,0.4,0.3,0.6c0.7,1.6,1.5,3.1,2.4,4.5c3.7,5.7,9.1,9.4,15.2,12.2c0.2,0.1,0.4,0.3,0.6,0.1
	c-0.1-0.2-0.2-0.4-0.4-0.5c-1.6-1.6-2.7-3.5-3.6-5.6c-2.1-5.1-2.2-10.4-1.6-15.8c0.4-3.4,1.8-6.7,0.2-10.1c-0.1-0.2,0-0.6,0.1-0.6
	c0.3-0.1,0.6,0.2,0.8,0.4c6.3,6,14,8,22.4,8.4c0.2,0,0.4-0.1,0.6-0.1c-0.2-0.1-0.4-0.3-0.6-0.3c-1.7-0.7-3.3-1.8-4.6-3
	c-4.1-3.8-6.4-8.7-8.1-14c-1.1-3.4-0.9-7.4-3.8-10.2c-0.2-0.2-0.5-0.7-0.4-0.8C129.6,85.7,130,86,130.3,86.1z M109.5,87
	c-0.3,1.3-0.6,2.6-0.7,3.9c-0.2,1.6-0.8,2.9-1.8,4.1c-2.2,2.7-4,5.6-5.9,8.5c-0.3,0.4-0.6,0.7-1,0.9c-2.8,1.5-5.5,3.1-7.9,5
	c-1.9,1.5-4,1.9-6.1,2.2c-2.8,0.4-5.5,0.9-8.3,1.6c-0.7,0.2-1.3,0.1-2,0c-3.5-0.9-7-1.8-10.6-2.3c-0.9-0.1-1.6-0.5-2.3-1
	c-2.9-2.3-6-4.4-9.2-6.3c-0.4-0.2-0.7-0.6-0.9-1c-2-3.4-4-6.7-6.3-9.8c-1-1.5-0.7-3.2-1.1-4.8c-0.4-1.7-0.4-3.5-1-5.2
	c-1-2.9-0.3-5.6,0.4-8.4c0.7-2.5,1.2-5,1.5-7.6c0.1-0.4,0.2-0.7,0.4-1c2.5-3.1,4.7-6.4,6.9-9.8c0.5-0.9,1.4-1.2,2.2-1.7
	c2.8-1.6,5.5-3.3,8-5.2c1.5-1.1,3.1-1.1,4.7-1.3c2.6-0.4,5.2-0.7,7.7-1.5c1.7-0.5,3.1,0,4.7,0.4c2.8,0.7,5.6,1.3,8.4,1.8
	c1.2,0.2,2.1,0.6,3,1.4c2.7,2.1,5.5,4,8.4,5.8c0.7,0.4,1.3,1,1.7,1.7c1.4,2.7,3.1,5.3,4.9,7.8c1,1.4,1.7,2.8,1.9,4.5
	c0.4,3.3,1,6.6,1.8,9.9c0.1,0.3,0.1,0.5,0.1,1C110.5,82.6,110,84.8,109.5,87z"/>
</svg>
